/* XPM */
static char * floor2_xpm[] = {
"32 32 3 1",
" 	c #666D8C",
".	c #664665",
"+	c #5D5C72",
" .++.++.... .++. .++.++.... .++.",
". .+++....   .... .+++....   ...",
".. + +... .+  .... + +... .+  ..",
"..+ .++. .++.  ...+ .++. .++.  .",
".++...+ .++...  .++...+ .++...  ",
" +.... .++.....  +.... .++..... ",
" ....+.+ ......  ....+.+ ...... ",
"....+.+ ......  ....+.+ ......  ",
"...+.++. ....  ....+.++. ....  .",
"..+. .... ..  ....+. .... ..  ..",
".+.  +....   +...+.  +....   +..",
"+.  .++...+ .++.+.  .++...+ .++.",
".  ...++.+ ...++.  ...++.+ ...++",
"  .....++ ....+.  .....++ ....+.",
" +.....+ ....+.  +.....+ ....+. ",
".++...+ ....+.+ .++...+ ....+.+ ",
" .++.++.... .++. .++.++.... .++.",
". .+++....   .... .+++....   ...",
".. + +... .+  .... + +... .+  ..",
"..+ .++. .++.  ...+ .++. .++.  .",
".++...+ .++...  .++...+ .++...  ",
" +.... .++.....  +.... .++..... ",
" ....+.+ ......  ....+.+ ...... ",
"....+.+ ......  ....+.+ ......  ",
"...+.++. ....  ....+.++. ....  .",
"..+. .... ..  ....+. .... ..  ..",
".+.  +....   +...+.  +....   +..",
"+.  .++...+ .++.+.  .++...+ .++.",
".  ...++.+ ...++.  ...++.+ ...++",
"  .....++ ....+.  .....++ ....+.",
" +.....+ ....+.  +.....+ ....+. ",
".++...+ ....+.+ .++...+ ....+.+ "};
