/* XPM */
static char * item2_xpm[] = {
"32 32 9 1",
" 	c #5D5C72",
".	c #666D8C",
"+	c #664665",
"@	c #140C1C",
"#	c #D04648",
"$	c #D2AA99",
"%	c #854C30",
"&	c #442434",
"*	c #DEEED6",
" .++++++..++++ + .++++++..++++ +",
" +.++++..++++ +  +.++++..++++ + ",
"+++.++..++++ +.++++.++..++++ +.+",
"++++... +++ +.. ++++... +++ +.. ",
" +++ .+  + +..+  +++ .+  + +..+ ",
"  + .+++  +..+++  + .+++  +..+++",
"+  .++++ +..+++++  .++++ +..++++",
"+ .++++ +.. +++++ @@@@@@@.. ++++",
" .++++ + .+  +@@@@####$$@.+  +++",
" ++++.+  +.+@@######$$$#@+.+  + ",
"++++...+++@@##$$$%%%%&%#@++.+   ",
"+++.+ ..@@*$#&######&&&#@+++. . ",
" +.+  +@$$*$&#######&&##@+++ .+ ",
" .+  +@$***$########&&##@.+  +++",
".+  ++@$$*$########$&##@+.. ++++",
"+ .++@##$$$#%&#####&###@+..++++ ",
" .+++@&&#$#%&&####$&##%@..++++ +",
" +.++@#&&$#&&&###$&##%@..++++ + ",
"+++.+@#%&$##&###$*&#%%@.++++ +.+",
"++++.@#%$$$####$*&#%%@. +++ +.. ",
" +++ @#%$$$**$$$&#%%%@+  + +..+ ",
"  + .+@#$$#####$#%%%@+++  +..+++",
"+  .+++@$########%%@++++ +..++++",
"+ .++++ @##$###$##@++++ +.. ++++",
" .++++ + @@$##$$@@++++ + .+  +++",
" ++++.+  +.@@@@@ ++++.+  +.+  + ",
"++++...++++.+   ++++...++++.+   ",
"+++.+ ..++++. . +++.+ ..++++. . ",
" +.+  +..+++ .+  +.+  +..+++ .+ ",
" .+  +++..+  +++ .+  +++..+  +++",
".+  +++++.. ++++.+  +++++.. ++++",
"+ .++++++..++++ + .++++++..++++ "};
