/* XPM */
static char * Player_door_xpm[] = {
"32 32 14 1",
" 	c #1D131E",
".	c #62351C",
"+	c #3E2613",
"@	c #523959",
"#	c #CE4E41",
"$	c #B53248",
"%	c #744B30",
"&	c #2B1C1D",
"*	c #292634",
"=	c #2E2533",
"-	c #726B7E",
";	c #46425D",
">	c #B19998",
",	c #3B485F",
" ...+....+...+....+...+....+... ",
" ...+....+...+....+...+....+... ",
" ...+....+...+....+...+....+... ",
" ...+....+...@@@..+...+....+... ",
" ...+....+..@##$@@+...+....+... ",
" ...+%%%%+..@$###$@...+%%%%+... ",
" ...+%%%%+..@@$#$$$@..+%%%%+... ",
" ..........@$######$@.......... ",
" ..%......@$########$@......%.. ",
" .+.&&&&&@$#$$$$$$$$#$@&&&&&.+. ",
" ...&+..+@$$@******@$$@+..+&.=. ",
" ...+....@$@********@$@....+ -  ",
" ...+....@$**********$@....+    ",
" ...+....@$**$****$**$@....+=;= ",
" ...+....@$@********@$@....+ >  ",
" ...+....+*$@******@$*+....+ >  ",
" ...+%%%%@##$$@@@@$$##@%%%%+=-= ",
" ...+%%%@#####$@@$#####@%%%+=-= ",
" ......@$######@$######$@...=;= ",
" ..%...@##$####@@####$##@... ;  ",
" .+.&&&*#$$####@$####$$#*&&&    ",
" ...&+.*$$$####@@####$$$*.+&... ",
" ...+..*@@$####@$####$@@*..+... ",
" ...+..,*@$####@@####$@*,..+... ",
" ...+..,,*$$##$@$$##$$*,,..+... ",
" ...+..,,*@$$$$@@$$$$@*,,..+... ",
" ...+...,,*@$$$@$$$$@*,,...+... ",
" ...+%%%%,,**@$@@$@**,,%%%%+... ",
" ...+%%%%+.,,******,,.+%%%%+... ",
" ..%.......%........%.......%.. ",
" .+........+........+........+. ",
" &&&&&&&&&&&&&&&&&&&&&&&&&&&&&& "};
