/* XPM */
static char * Player3_xpm[] = {
"32 32 8 1",
" 	c #664665",
".	c #5D5C72",
"+	c #666D8C",
"@	c #523959",
"#	c #CE4E41",
"$	c #B53248",
"%	c #292634",
"&	c #3B485F",
" . .+ ..   .+    . .+ ..   .+   ",
"+ .. + .. ..    + .. + .. ..    ",
"++    + ... @@@+++    + ...    +",
".++    +.+.@##$@@++    +.+.   + ",
". ++   .+ .@$###$@++   .+ .. + .",
"   ++ ..   @@$#$$$@++ ..   .+ ..",
"    ++.   @$######$@++.    + .. ",
"    ++   @$########$@+    . .+  ",
"   ++   @$#$$$$$$$$#$@   . .+   ",
"  ++    @$$@%%%%%%@$$@  . .. +  ",
" ++    .@$@%%%%%%%%@$@ . +    + ",
"++.   . @$%%%%%%%%%%$@. ++.    +",
"+ .. . +@$%%$%%%%$%%$@ ++ ..   .",
"   .. ++@$@%%%%%%%%@$@++   .. .+",
"   . ++  %$@%%%%%%@$%++     ..+ ",
"  . ++. @##$$@@@@$$##@.     .+  ",
" . .+ .@#####$@@$#####@.   .+   ",
"+ .. +@$######@$######$@. ..    ",
"++    @##$####@@####$##@...    +",
".++   %#$$####@$####$$#%.+.   + ",
". ++  %$$$####@@####$$$%+ .. + .",
"   ++ %@@$####@$####$@@%   .+ ..",
"    ++&%@$####@@####$@%&   + .. ",
"    ++&&%$$##$@$$##$$%&&  . .+  ",
"   ++ &&%@$$$$@@$$$$@%&& . .+   ",
"  ++   &&%@$$$@$$$$@%&& . .. +  ",
" ++    .&&%%@$@@$@%%&& . +    + ",
"++.   . ++&&%%%%%%&&  . ++.    +",
"+ .. . ++ ..   .+ .. . ++ ..   .",
"   .. ++   .. .+   .. ++   .. .+",
"   . ++     ..+    . ++     ..+ ",
"  . ++.     .+    . ++.     .+  "};
