/* XPM */
static char * Wall2_xpm[] = {
"32 32 2 1",
" 	c #6A8D8E",
".	c #666D8C",
"   .    .      .   .    .      .",
"   .    .      .   .    .      .",
"..... ... ........... ... ......",
"      .   .   .       .   .   . ",
"      .   .   .       .   .   . ",
"      .   .   .       .   .   . ",
"      .   .....       .   ..... ",
".......   .    ........   .    .",
"   .  .....    .   .  .....    .",
"   .  .   .    .   .  .   .    .",
"   .  .   .    .   .  .   .    .",
"   .  .   .    .   .  .   .    .",
" ...  .        . ...  .        .",
"   . ...........   . ...........",
"   .    .      .   .    .      .",
"   .    .      .   .    .      .",
"   .    .      .   .    .      .",
"   .    .      .   .    .      .",
"..... ... ........... ... ......",
"      .   .   .       .   .   . ",
"      .   .   .       .   .   . ",
"      .   .   .       .   .   . ",
"      .   .....       .   ..... ",
".......   .    ........   .    .",
"   .  .....    .   .  .....    .",
"   .  .   .    .   .  .   .    .",
"   .  .   .    .   .  .   .    .",
"   .  .   .    .   .  .   .    .",
" ...  .        . ...  .        .",
"   . ...........   . ...........",
"   .    .      .   .    .      .",
"   .    .      .   .    .      ."};
